<svg xmlns="http://www.w3.org/2000/svg" xmlns:xlink="http://www.w3.org/1999/xlink" width="1080" zoomAndPan="magnify" viewBox="0 0 810 809.999993" height="1080" preserveAspectRatio="xMidYMid meet" version="1.0"><defs><g/><clipPath id="5d3718c431"><path d="M 66.324219 66.933594 L 641 66.933594 L 641 436 L 66.324219 436 Z M 66.324219 66.933594 " clip-rule="nonzero"/></clipPath><clipPath id="4387e13b10"><path d="M 462.414062 463.113281 L 763 463.113281 L 763 674.082031 L 462.414062 674.082031 Z M 462.414062 463.113281 " clip-rule="nonzero"/></clipPath><clipPath id="ab7d416aed"><path d="M 500.664062 463.113281 L 724.433594 463.113281 C 745.558594 463.113281 762.683594 480.238281 762.683594 501.363281 L 762.683594 635.832031 C 762.683594 656.957031 745.558594 674.082031 724.433594 674.082031 L 500.664062 674.082031 C 479.539062 674.082031 462.414062 656.957031 462.414062 635.832031 L 462.414062 501.363281 C 462.414062 480.238281 479.539062 463.113281 500.664062 463.113281 Z M 500.664062 463.113281 " clip-rule="nonzero"/></clipPath></defs><path fill="#000000" d="M 691.175781 389.402344 C 693.128906 369.363281 693.699219 350.914062 689.769531 337.636719 L 689.925781 337.636719 C 689.925781 289.222656 686.367188 239.792969 679.90625 198.449219 C 673.367188 156.589844 664.992188 125.40625 652.90625 110.960938 C 607.515625 87.242188 551.933594 80.746094 491.9375 81.695312 L 97.957031 143.960938 C 99.308594 147.132812 100.691406 150.261719 102.101562 153.359375 C 264.363281 126.375 447.3125 93.984375 486.085938 99.253906 C 497.429688 163.84375 505.113281 226.132812 501.921875 281.582031 C 500.304688 280.492188 498.355469 279.855469 496.257812 279.855469 L 486.671875 279.855469 C 481.066406 279.855469 476.519531 284.398438 476.519531 290.007812 L 476.519531 317.382812 C 476.519531 321.78125 479.320312 325.511719 483.230469 326.921875 C 393.207031 318.304688 393.414062 220.941406 338.859375 220.941406 C 313.609375 220.683594 226.488281 225.050781 147.488281 228.808594 C 198.164062 294.359375 266.398438 337.957031 339.398438 367.53125 C 345.054688 350.402344 355.289062 339.941406 371.210938 337.777344 C 387.203125 336.566406 404.335938 357.652344 407.003906 390.859375 C 436.257812 399.386719 465.644531 406.136719 494.398438 411.585938 L 497.117188 400.226562 L 691.175781 389.398438 Z M 502.179688 102.914062 C 555.164062 96.972656 606.71875 102.820312 656.613281 122.398438 C 673.65625 157.347656 686.082031 242.332031 686.65625 331.210938 L 515.351562 335.585938 C 518.792969 254.273438 515.226562 176.320312 502.179688 102.914062 Z M 496.328125 327.535156 C 496.308594 327.535156 496.289062 327.535156 496.269531 327.535156 C 496.289062 327.535156 496.308594 327.535156 496.332031 327.535156 Z M 496.328125 327.535156 " fill-opacity="1" fill-rule="nonzero"/><path fill="#000000" d="M 687.296875 422.652344 C 688.445312 413.269531 689.65625 403.816406 690.640625 394.628906 L 500.921875 405.214844 L 497.960938 412.261719 C 540.441406 420.167969 581.457031 425.265625 618.519531 429.101562 Z M 687.296875 422.652344 " fill-opacity="1" fill-rule="nonzero"/><g clip-path="url(#5d3718c431)"><path fill="#f2bb02" d="M 332.914062 370.777344 C 259.910156 341.199219 191.675781 297.609375 141.007812 232.054688 C 123.640625 209.589844 108.339844 184.542969 95.617188 156.605469 C 94.207031 153.503906 92.816406 150.378906 91.472656 147.207031 C 81.050781 122.675781 72.5625 95.988281 66.347656 66.9375 C 68.96875 96.550781 73.082031 123.921875 78.78125 149.210938 C 79.523438 152.511719 80.289062 155.78125 81.085938 159.011719 C 87.835938 186.339844 96.535156 211.144531 107.320312 233.636719 C 148.285156 319.089844 219.328125 371.113281 327.75 400.898438 C 350.242188 407.074219 374.347656 412.296875 400.128906 416.660156 C 426.589844 421.140625 454.816406 424.71875 484.875 427.5 C 485.375 427.542969 485.875 427.589844 486.375 427.636719 C 519.929688 430.707031 555.761719 432.789062 593.96875 434.039062 C 609.078125 434.535156 624.550781 434.898438 640.40625 435.144531 C 631.253906 434.28125 621.777344 433.355469 612.03125 432.347656 C 574.96875 428.511719 533.953125 423.414062 491.46875 415.507812 C 490.285156 415.289062 489.09375 415.0625 487.90625 414.835938 C 459.15625 409.386719 429.769531 402.636719 400.515625 394.109375 C 377.777344 387.484375 355.125 379.777344 332.910156 370.78125 Z M 332.914062 370.777344 " fill-opacity="1" fill-rule="nonzero"/></g><path fill="#000000" d="M 600.035156 436.917969 C 327.230469 479.980469 150.914062 424.257812 84.523438 212.804688 C 168.125 390.863281 325.195312 449.207031 600.035156 436.917969 Z M 600.035156 436.917969 " fill-opacity="1" fill-rule="nonzero"/><g clip-path="url(#4387e13b10)"><g clip-path="url(#ab7d416aed)"><path fill="#000000" d="M 462.414062 463.113281 L 762.386719 463.113281 L 762.386719 674.082031 L 462.414062 674.082031 Z M 462.414062 463.113281 " fill-opacity="1" fill-rule="nonzero"/></g></g><g fill="#000000" fill-opacity="1"><g transform="translate(47.317376, 661.722836)"><g><path d="M 82.65625 0 L 45.765625 -95.578125 L 39.578125 -1.078125 L 8.078125 -1.609375 L 8.078125 -184.421875 L 50.34375 -183.625 L 83.1875 -81.84375 L 91.265625 -185.5 L 124.921875 -182 L 124.921875 -1.890625 Z M 82.65625 0 "/></g></g></g><g fill="#000000" fill-opacity="1"><g transform="translate(180.316695, 661.722836)"><g><path d="M 6.734375 0 L 35.265625 -177.421875 L 97.734375 -181.1875 L 133.265625 0 L 90.46875 0 L 85.34375 -30.96875 L 57.34375 -30.6875 L 53.3125 0 Z M 60.046875 -54.921875 L 79.96875 -54.390625 L 71.609375 -112.546875 L 65.6875 -109.578125 Z M 60.046875 -54.921875 "/></g></g></g><g fill="#000000" fill-opacity="1"><g transform="translate(320.315938, 661.722836)"><g><path d="M 45.765625 -4.03125 L 8.078125 -180.65625 L 46.84375 -182.265625 L 78.078125 -51.15625 L 98.8125 -182.265625 L 143.765625 -180.390625 L 112.265625 -4.84375 Z M 45.765625 -4.03125 "/></g></g></g><g fill="#facc15" fill-opacity="1"><g transform="translate(472.172323, 661.722836)"><g><path d="M 46.046875 0 L 8.078125 -42 L 8.078125 -167.1875 L 63.265625 -182.8125 L 127.34375 -179.84375 L 127.34375 -140 L 50.609375 -137.578125 L 50.609375 -57.890625 L 63.8125 -36.34375 L 99.34375 -37.6875 L 103.390625 -60.3125 L 76.734375 -58.6875 L 70.546875 -102.84375 L 142.421875 -99.078125 L 135.421875 -2.6875 L 93.15625 -0.8125 Z M 46.046875 0 "/></g></g></g><g fill="#facc15" fill-opacity="1"><g transform="translate(622.671527, 661.722836)"><g><path d="M 46.046875 0 L 8.078125 -12.390625 L 12.390625 -175.546875 L 63.265625 -188.46875 L 119.546875 -176.890625 L 124.109375 -12.390625 L 93.15625 -0.8125 Z M 46.578125 -35 L 83.734375 -30.96875 L 85.609375 -148.625 L 50.890625 -143.765625 Z M 46.578125 -35 "/></g></g></g></svg>