<svg xmlns="http://www.w3.org/2000/svg" xmlns:xlink="http://www.w3.org/1999/xlink" width="6912" zoomAndPan="magnify" viewBox="0 0 5184 2592.000001" height="3456" preserveAspectRatio="xMidYMid meet" version="1.0"><defs><g/><clipPath id="de7ebe96eb"><path d="M 82.101562 664.507812 L 1837 664.507812 L 1837 1790 L 82.101562 1790 Z M 82.101562 664.507812 " clip-rule="nonzero"/></clipPath><clipPath id="c73cdb2ae1"><path d="M 3887.570312 793.554688 L 5085 793.554688 L 5085 1687.125 L 3887.570312 1687.125 Z M 3887.570312 793.554688 " clip-rule="nonzero"/></clipPath><clipPath id="4ff15c5658"><path d="M 3925.808594 793.554688 L 5047.480469 793.554688 C 5057.621094 793.554688 5067.347656 797.585938 5074.515625 804.753906 C 5081.6875 811.925781 5085.714844 821.652344 5085.714844 831.792969 L 5085.714844 1648.890625 C 5085.714844 1659.03125 5081.6875 1668.757812 5074.515625 1675.925781 C 5067.347656 1683.097656 5057.621094 1687.125 5047.480469 1687.125 L 3925.808594 1687.125 C 3915.667969 1687.125 3905.941406 1683.097656 3898.769531 1675.925781 C 3891.601562 1668.757812 3887.570312 1659.03125 3887.570312 1648.890625 L 3887.570312 831.792969 C 3887.570312 821.652344 3891.601562 811.925781 3898.769531 804.753906 C 3905.941406 797.585938 3915.667969 793.554688 3925.808594 793.554688 Z M 3925.808594 793.554688 " clip-rule="nonzero"/></clipPath></defs><path fill="#000000" d="M 1991.273438 1649.765625 C 1997.242188 1588.535156 1998.980469 1532.171875 1986.96875 1491.609375 L 1987.445312 1491.609375 C 1987.445312 1343.6875 1976.574219 1192.65625 1956.839844 1066.335938 C 1936.855469 938.4375 1911.261719 843.15625 1874.34375 799.027344 C 1735.660156 726.558594 1565.828125 706.699219 1382.523438 709.601562 L 178.761719 899.855469 C 182.878906 909.546875 187.113281 919.101562 191.421875 928.570312 C 687.191406 846.117188 1246.167969 747.15625 1364.636719 763.253906 C 1399.304688 960.605469 1422.773438 1150.914062 1413.027344 1320.339844 C 1408.085938 1317.007812 1402.128906 1315.058594 1395.714844 1315.058594 L 1366.433594 1315.058594 C 1349.300781 1315.058594 1335.417969 1328.941406 1335.417969 1346.074219 L 1335.417969 1429.71875 C 1335.417969 1443.152344 1343.96875 1454.558594 1355.917969 1458.871094 C 1080.859375 1432.535156 1081.496094 1135.058594 914.808594 1135.058594 C 837.65625 1134.273438 571.464844 1147.613281 330.097656 1159.089844 C 484.925781 1359.378906 693.40625 1492.582031 916.449219 1582.941406 C 933.734375 1530.605469 965.003906 1498.644531 1013.652344 1492.03125 C 1062.519531 1488.332031 1114.863281 1552.757812 1123.015625 1654.222656 C 1212.402344 1680.28125 1302.1875 1700.902344 1390.035156 1717.550781 L 1398.347656 1682.84375 L 1991.273438 1649.753906 Z M 1413.816406 774.429688 C 1575.703125 756.28125 1733.226562 774.15625 1885.671875 833.960938 C 1937.742188 940.75 1975.703125 1200.417969 1977.460938 1471.976562 L 1454.058594 1485.339844 C 1464.578125 1236.902344 1453.675781 998.71875 1413.816406 774.4375 Z M 1395.9375 1460.746094 C 1395.875 1460.746094 1395.8125 1460.746094 1395.753906 1460.746094 C 1395.8125 1460.746094 1395.875 1460.738281 1395.945312 1460.738281 C 1395.945312 1460.738281 1395.945312 1460.738281 1395.945312 1460.746094 Z M 1395.9375 1460.746094 " fill-opacity="1" fill-rule="nonzero"/><path fill="#000000" d="M 1979.414062 1751.363281 C 1982.929688 1722.695312 1986.625 1693.8125 1989.632812 1665.734375 L 1409.96875 1698.085938 L 1400.917969 1719.609375 C 1530.714844 1743.769531 1656.035156 1759.347656 1769.28125 1771.066406 L 1979.421875 1751.363281 Z M 1979.414062 1751.363281 " fill-opacity="1" fill-rule="nonzero"/><g clip-path="url(#de7ebe96eb)"><path fill="#f2bb02" d="M 896.636719 1592.859375 C 673.589844 1502.496094 465.109375 1369.300781 310.289062 1169.007812 C 257.230469 1100.375 210.484375 1023.851562 171.605469 938.480469 C 167.292969 929.011719 163.054688 919.460938 158.945312 909.769531 C 127.097656 834.8125 101.171875 753.28125 82.179688 664.515625 C 90.1875 754.996094 102.757812 838.625 120.164062 915.894531 C 122.4375 925.980469 124.773438 935.972656 127.214844 945.839844 C 147.835938 1029.332031 174.414062 1105.121094 207.359375 1173.839844 C 332.527344 1434.933594 549.59375 1593.886719 880.859375 1684.886719 C 949.585938 1703.765625 1023.242188 1719.71875 1102.003906 1733.050781 C 1182.855469 1746.738281 1269.09375 1757.671875 1360.945312 1766.167969 C 1362.46875 1766.304688 1364 1766.441406 1365.523438 1766.589844 C 1468.046875 1775.964844 1577.523438 1782.335938 1694.269531 1786.15625 C 1740.429688 1787.664062 1787.707031 1788.78125 1836.152344 1789.523438 C 1808.191406 1786.890625 1779.230469 1784.066406 1749.453125 1780.988281 C 1636.207031 1769.261719 1510.890625 1753.691406 1381.09375 1729.53125 C 1377.472656 1728.859375 1373.835938 1728.167969 1370.207031 1727.480469 C 1282.359375 1710.832031 1192.574219 1690.207031 1103.191406 1664.152344 C 1033.722656 1643.902344 964.507812 1620.363281 896.628906 1592.867188 Z M 896.636719 1592.859375 " fill-opacity="1" fill-rule="nonzero"/></g><path fill="#000000" d="M 1712.792969 1794.941406 C 879.277344 1926.523438 340.554688 1756.261719 137.714844 1110.195312 C 393.144531 1654.238281 873.0625 1832.496094 1712.792969 1794.941406 Z M 1712.792969 1794.941406 " fill-opacity="1" fill-rule="nonzero"/><g clip-path="url(#c73cdb2ae1)"><g clip-path="url(#4ff15c5658)"><path fill="#000000" d="M 3887.570312 793.554688 L 5084.816406 793.554688 L 5084.816406 1687.125 L 3887.570312 1687.125 Z M 3887.570312 793.554688 " fill-opacity="1" fill-rule="nonzero"/></g></g><g fill="#000000" fill-opacity="1"><g transform="translate(2088.908607, 1634.777318)"><g><path d="M 350.078125 0 L 193.859375 -404.828125 L 167.625 -4.5625 L 34.203125 -6.84375 L 34.203125 -781.140625 L 213.25 -777.71875 L 352.359375 -346.671875 L 386.578125 -785.703125 L 529.125 -770.875 L 529.125 -7.984375 Z M 350.078125 0 "/></g></g></g><g fill="#000000" fill-opacity="1"><g transform="translate(2652.237098, 1634.777318)"><g><path d="M 28.515625 0 L 149.390625 -751.484375 L 413.9375 -767.453125 L 564.46875 0 L 383.15625 0 L 361.484375 -131.140625 L 242.890625 -130 L 225.78125 0 Z M 254.296875 -232.625 L 338.6875 -230.34375 L 303.328125 -476.65625 L 278.25 -464.125 Z M 254.296875 -232.625 "/></g></g></g><g fill="#000000" fill-opacity="1"><g transform="translate(3245.214285, 1634.777318)"><g><path d="M 193.859375 -17.109375 L 34.203125 -765.171875 L 198.421875 -772.015625 L 330.703125 -216.671875 L 418.5 -772.015625 L 608.9375 -764.03125 L 475.515625 -20.53125 Z M 193.859375 -17.109375 "/></g></g></g><g fill="#facc15" fill-opacity="1"><g transform="translate(3888.413278, 1634.777318)"><g><path d="M 195 0 L 34.203125 -177.890625 L 34.203125 -708.15625 L 267.984375 -774.296875 L 539.375 -761.75 L 539.375 -592.984375 L 214.390625 -582.71875 L 214.390625 -245.171875 L 270.265625 -153.953125 L 420.78125 -159.640625 L 437.890625 -255.4375 L 325 -248.59375 L 298.765625 -435.609375 L 603.234375 -419.640625 L 573.59375 -11.40625 L 394.5625 -3.421875 Z M 195 0 "/></g></g></g><g fill="#facc15" fill-opacity="1"><g transform="translate(4525.863833, 1634.777318)"><g><path d="M 195 0 L 34.203125 -52.453125 L 52.453125 -743.5 L 267.984375 -798.234375 L 506.3125 -749.203125 L 525.703125 -52.453125 L 394.5625 -3.421875 Z M 197.28125 -148.25 L 354.640625 -131.140625 L 362.625 -629.46875 L 215.53125 -608.9375 Z M 197.28125 -148.25 "/></g></g></g></svg>