<svg xmlns="http://www.w3.org/2000/svg" xmlns:xlink="http://www.w3.org/1999/xlink" width="500" zoomAndPan="magnify" viewBox="0 0 375 374.999991" height="500" preserveAspectRatio="xMidYMid meet" version="1.0"><defs><filter x="0%" y="0%" width="100%" height="100%" id="86b117ad7e"><feColorMatrix values="0 0 0 0 1 0 0 0 0 1 0 0 0 0 1 0 0 0 1 0" color-interpolation-filters="sRGB"/></filter><mask id="01815bf7ed"><g filter="url(#86b117ad7e)"><rect x="-37.5" width="450" fill="#000000" y="-37.499999" height="449.999989" fill-opacity="0.33"/></g></mask><clipPath id="8c8a32c7de"><path d="M 0.3125 0.5 L 253.972656 0.5 L 253.972656 254.160156 L 0.3125 254.160156 Z M 0.3125 0.5 " clip-rule="nonzero"/></clipPath><clipPath id="5dfe8de190"><path d="M 127.144531 0.5 C 57.097656 0.5 0.3125 57.285156 0.3125 127.332031 C 0.3125 197.378906 57.097656 254.160156 127.144531 254.160156 C 197.191406 254.160156 253.972656 197.378906 253.972656 127.332031 C 253.972656 57.285156 197.191406 0.5 127.144531 0.5 Z M 127.144531 0.5 " clip-rule="nonzero"/></clipPath><clipPath id="d63fffb5e4"><rect x="0" width="255" y="0" height="255"/></clipPath><clipPath id="966731340b"><path d="M 137 122.128906 L 319 122.128906 L 319 337.378906 L 137 337.378906 Z M 137 122.128906 " clip-rule="nonzero"/></clipPath><clipPath id="e2e29d70ca"><path d="M 268 122.128906 L 319 122.128906 L 319 207 L 268 207 Z M 268 122.128906 " clip-rule="nonzero"/></clipPath><clipPath id="c7b6e864a1"><path d="M 137 122.128906 L 187 122.128906 L 187 207 L 137 207 Z M 137 122.128906 " clip-rule="nonzero"/></clipPath></defs><rect x="-37.5" width="450" fill="#ffffff" y="-37.499999" height="449.999989" fill-opacity="1"/><rect x="-37.5" width="450" fill="#ffffff" y="-37.499999" height="449.999989" fill-opacity="1"/><g mask="url(#01815bf7ed)"><g transform="matrix(1, 0, 0, 1, 42, 37)"><g clip-path="url(#d63fffb5e4)"><g clip-path="url(#8c8a32c7de)"><g clip-path="url(#5dfe8de190)"><path fill="#fdd851" d="M 0.3125 0.5 L 253.972656 0.5 L 253.972656 254.160156 L 0.3125 254.160156 Z M 0.3125 0.5 " fill-opacity="1" fill-rule="nonzero"/></g></g></g></g></g><g clip-path="url(#966731340b)"><path fill="#000000" d="M 303.492188 282.660156 L 298.949219 282.660156 C 286.925781 270.035156 280.328125 253.558594 280.328125 236.0625 L 280.328125 200.585938 C 280.328125 179.878906 268.292969 161.925781 250.847656 153.347656 L 250.847656 145.867188 C 250.847656 133.101562 240.457031 122.71875 227.683594 122.71875 C 214.910156 122.71875 204.519531 133.101562 204.519531 145.867188 L 204.519531 153.347656 C 187.074219 161.925781 175.039062 179.878906 175.039062 200.585938 L 175.039062 236.0625 C 175.039062 253.558594 168.441406 270.035156 156.417969 282.660156 L 151.875 282.660156 C 143.746094 282.660156 137.136719 289.269531 137.136719 297.394531 C 137.136719 305.515625 143.746094 312.125 151.875 312.125 L 204.519531 312.125 L 204.519531 314.230469 C 204.519531 326.996094 214.910156 337.378906 227.683594 337.378906 C 240.457031 337.378906 250.847656 326.996094 250.847656 314.230469 L 250.847656 312.125 L 303.492188 312.125 C 311.617188 312.125 318.230469 305.515625 318.230469 297.394531 C 318.230469 289.269531 311.617188 282.660156 303.492188 282.660156 Z M 212.941406 145.867188 C 212.941406 137.746094 219.554688 131.136719 227.683594 131.136719 C 235.8125 131.136719 242.421875 137.746094 242.421875 145.867188 L 242.421875 150.074219 C 232.824219 147.273438 222.546875 147.269531 212.941406 150.074219 Z M 183.460938 236.0625 L 183.460938 200.585938 C 183.460938 176.214844 203.300781 156.390625 227.683594 156.390625 C 252.066406 156.390625 271.902344 176.214844 271.902344 200.585938 L 271.902344 236.0625 C 271.902344 253.15625 277.507812 269.386719 287.84375 282.660156 L 167.523438 282.660156 C 177.859375 269.386719 183.460938 253.15625 183.460938 236.0625 Z M 242.421875 314.230469 C 242.421875 322.351562 235.8125 328.960938 227.683594 328.960938 C 219.554688 328.960938 212.941406 322.351562 212.941406 314.230469 L 212.941406 312.125 L 242.421875 312.125 Z M 242.421875 314.230469 " fill-opacity="1" fill-rule="nonzero"/></g><path fill="#000000" d="M 266.796875 152.902344 C 282.09375 161.347656 291.09375 178.164062 289.726562 195.746094 C 289.546875 198.0625 291.28125 200.085938 293.601562 200.269531 C 295.925781 200.449219 297.945312 198.707031 298.125 196.398438 C 299.75 175.535156 289.050781 155.570312 270.871094 145.535156 C 268.835938 144.410156 266.269531 145.148438 265.148438 147.183594 C 264.023438 149.21875 264.761719 151.777344 266.796875 152.902344 Z M 266.796875 152.902344 " fill-opacity="1" fill-rule="nonzero"/><g clip-path="url(#e2e29d70ca)"><path fill="#000000" d="M 271.058594 130.613281 C 296.683594 144.761719 311.761719 172.925781 309.472656 202.363281 C 309.292969 204.683594 311.023438 206.707031 313.34375 206.886719 C 315.652344 207.066406 317.6875 205.34375 317.871094 203.015625 C 320.414062 170.296875 303.640625 138.984375 275.132812 123.242188 C 273.09375 122.121094 270.53125 122.859375 269.410156 124.890625 C 268.285156 126.925781 269.023438 129.488281 271.058594 130.613281 Z M 271.058594 130.613281 " fill-opacity="1" fill-rule="nonzero"/></g><path fill="#000000" d="M 157.136719 196.398438 C 157.308594 198.605469 159.152344 200.28125 161.332031 200.28125 C 163.800781 200.28125 165.722656 198.183594 165.535156 195.746094 C 164.167969 178.164062 173.167969 161.347656 188.464844 152.902344 C 190.5 151.777344 191.238281 149.21875 190.113281 147.183594 C 188.992188 145.148438 186.425781 144.410156 184.390625 145.535156 C 166.214844 155.570312 155.515625 175.535156 157.136719 196.398438 Z M 157.136719 196.398438 " fill-opacity="1" fill-rule="nonzero"/><g clip-path="url(#c7b6e864a1)"><path fill="#000000" d="M 141.917969 206.886719 C 144.238281 206.707031 145.972656 204.683594 145.789062 202.363281 C 143.5 172.925781 158.578125 144.761719 184.203125 130.613281 C 186.242188 129.488281 186.980469 126.925781 185.855469 124.890625 C 184.730469 122.855469 182.167969 122.117188 180.132812 123.242188 C 151.625 138.984375 134.847656 170.296875 137.394531 203.015625 C 137.574219 205.335938 139.601562 207.066406 141.917969 206.886719 Z M 141.917969 206.886719 " fill-opacity="1" fill-rule="nonzero"/></g></svg>